<mxfile host="Electron" modified="2023-12-21T22:17:42.565Z" agent="Mozilla/5.0 (Windows NT 10.0; Win64; x64) AppleWebKit/537.36 (KHTML, like Gecko) draw.io/22.1.2 Chrome/114.0.5735.289 Electron/25.9.4 Safari/537.36" etag="XxxQRikLlcE1IF3xhM1H" version="22.1.2" type="device">
  <diagram name="Page-1" id="CPhRGsH1OB0Izhin34-P">
    <mxGraphModel dx="869" dy="556" grid="1" gridSize="10" guides="1" tooltips="1" connect="1" arrows="1" fold="1" page="1" pageScale="1" pageWidth="827" pageHeight="583" math="0" shadow="0">
      <root>
        <mxCell id="0" />
        <mxCell id="1" parent="0" />
        <mxCell id="HnHxEKp6ncTy2WVnBaNF-1" value="u:Usager" style="rounded=0;whiteSpace=wrap;html=1;" vertex="1" parent="1">
          <mxGeometry x="134" y="90" width="70" height="30" as="geometry" />
        </mxCell>
        <mxCell id="HnHxEKp6ncTy2WVnBaNF-2" value="a:Ascenseur" style="rounded=0;whiteSpace=wrap;html=1;" vertex="1" parent="1">
          <mxGeometry x="290" y="90" width="80" height="30" as="geometry" />
        </mxCell>
        <mxCell id="HnHxEKp6ncTy2WVnBaNF-3" value="p:Porte" style="rounded=0;whiteSpace=wrap;html=1;" vertex="1" parent="1">
          <mxGeometry x="450" y="90" width="60" height="30" as="geometry" />
        </mxCell>
        <mxCell id="HnHxEKp6ncTy2WVnBaNF-5" value="v:Voyant" style="rounded=0;whiteSpace=wrap;html=1;" vertex="1" parent="1">
          <mxGeometry x="585" y="90" width="70" height="30" as="geometry" />
        </mxCell>
        <mxCell id="HnHxEKp6ncTy2WVnBaNF-6" value="" style="endArrow=none;dashed=1;html=1;rounded=0;entryX=0.5;entryY=1;entryDx=0;entryDy=0;" edge="1" parent="1" target="HnHxEKp6ncTy2WVnBaNF-1">
          <mxGeometry width="50" height="50" relative="1" as="geometry">
            <mxPoint x="169" y="550" as="sourcePoint" />
            <mxPoint x="144" y="220" as="targetPoint" />
          </mxGeometry>
        </mxCell>
        <mxCell id="HnHxEKp6ncTy2WVnBaNF-7" value="" style="endArrow=none;dashed=1;html=1;rounded=0;entryX=0.5;entryY=1;entryDx=0;entryDy=0;" edge="1" parent="1" source="HnHxEKp6ncTy2WVnBaNF-13" target="HnHxEKp6ncTy2WVnBaNF-2">
          <mxGeometry width="50" height="50" relative="1" as="geometry">
            <mxPoint x="330" y="550" as="sourcePoint" />
            <mxPoint x="325" y="130" as="targetPoint" />
          </mxGeometry>
        </mxCell>
        <mxCell id="HnHxEKp6ncTy2WVnBaNF-8" value="" style="endArrow=none;dashed=1;html=1;rounded=0;entryX=0.5;entryY=1;entryDx=0;entryDy=0;" edge="1" parent="1" source="HnHxEKp6ncTy2WVnBaNF-29" target="HnHxEKp6ncTy2WVnBaNF-3">
          <mxGeometry width="50" height="50" relative="1" as="geometry">
            <mxPoint x="480" y="550" as="sourcePoint" />
            <mxPoint x="460" y="120" as="targetPoint" />
          </mxGeometry>
        </mxCell>
        <mxCell id="HnHxEKp6ncTy2WVnBaNF-9" value="" style="endArrow=none;dashed=1;html=1;rounded=0;entryX=0.5;entryY=1;entryDx=0;entryDy=0;" edge="1" parent="1" source="HnHxEKp6ncTy2WVnBaNF-55" target="HnHxEKp6ncTy2WVnBaNF-5">
          <mxGeometry width="50" height="50" relative="1" as="geometry">
            <mxPoint x="620" y="550" as="sourcePoint" />
            <mxPoint x="495" y="130" as="targetPoint" />
          </mxGeometry>
        </mxCell>
        <mxCell id="HnHxEKp6ncTy2WVnBaNF-10" value="" style="shape=umlActor;verticalLabelPosition=bottom;verticalAlign=top;html=1;outlineConnect=0;" vertex="1" parent="1">
          <mxGeometry x="154" y="20" width="30" height="60" as="geometry" />
        </mxCell>
        <mxCell id="HnHxEKp6ncTy2WVnBaNF-14" value="" style="endArrow=openAsync;html=1;rounded=0;endFill=0;" edge="1" parent="1" target="HnHxEKp6ncTy2WVnBaNF-13">
          <mxGeometry width="50" height="50" relative="1" as="geometry">
            <mxPoint x="170" y="160" as="sourcePoint" />
            <mxPoint x="300" y="160" as="targetPoint" />
          </mxGeometry>
        </mxCell>
        <mxCell id="HnHxEKp6ncTy2WVnBaNF-15" value="a.appeler()" style="text;html=1;align=center;verticalAlign=middle;resizable=0;points=[];autosize=1;strokeColor=none;fillColor=none;" vertex="1" parent="1">
          <mxGeometry x="210" y="133" width="80" height="30" as="geometry" />
        </mxCell>
        <mxCell id="HnHxEKp6ncTy2WVnBaNF-16" value="" style="endArrow=open;html=1;rounded=0;endFill=0;dashed=1;dashPattern=8 8;" edge="1" parent="1" source="HnHxEKp6ncTy2WVnBaNF-13">
          <mxGeometry width="50" height="50" relative="1" as="geometry">
            <mxPoint x="260" y="240" as="sourcePoint" />
            <mxPoint x="170" y="180" as="targetPoint" />
          </mxGeometry>
        </mxCell>
        <mxCell id="HnHxEKp6ncTy2WVnBaNF-18" value="&lt;font color=&quot;#ff0000&quot; style=&quot;font-size: 14px;&quot;&gt;X&lt;/font&gt;" style="edgeLabel;html=1;align=center;verticalAlign=middle;resizable=0;points=[];" vertex="1" connectable="0" parent="HnHxEKp6ncTy2WVnBaNF-16">
          <mxGeometry x="-0.0017" y="-1" relative="1" as="geometry">
            <mxPoint as="offset" />
          </mxGeometry>
        </mxCell>
        <mxCell id="HnHxEKp6ncTy2WVnBaNF-17" value="&lt;font color=&quot;#ff0000&quot;&gt;&lt;strike&gt;ascenseur appelé&lt;/strike&gt;&lt;/font&gt;" style="text;html=1;align=center;verticalAlign=middle;resizable=0;points=[];autosize=1;strokeColor=none;fillColor=none;" vertex="1" parent="1">
          <mxGeometry x="190" y="181" width="120" height="30" as="geometry" />
        </mxCell>
        <mxCell id="HnHxEKp6ncTy2WVnBaNF-19" value="" style="endArrow=open;html=1;rounded=0;endFill=0;exitX=1;exitY=0;exitDx=0;exitDy=5;exitPerimeter=0;" edge="1" parent="1" source="HnHxEKp6ncTy2WVnBaNF-13" target="HnHxEKp6ncTy2WVnBaNF-20">
          <mxGeometry width="50" height="50" relative="1" as="geometry">
            <mxPoint x="390" y="180" as="sourcePoint" />
            <mxPoint x="610" y="160" as="targetPoint" />
          </mxGeometry>
        </mxCell>
        <mxCell id="HnHxEKp6ncTy2WVnBaNF-20" value="" style="html=1;points=[[0,0,0,0,5],[0,1,0,0,-5],[1,0,0,0,5],[1,1,0,0,-5]];perimeter=orthogonalPerimeter;outlineConnect=0;targetShapes=umlLifeline;portConstraint=eastwest;newEdgeStyle={&quot;curved&quot;:0,&quot;rounded&quot;:0};" vertex="1" parent="1">
          <mxGeometry x="615" y="165" width="10" height="15" as="geometry" />
        </mxCell>
        <mxCell id="HnHxEKp6ncTy2WVnBaNF-21" value="v.allumer()" style="text;html=1;align=center;verticalAlign=middle;resizable=0;points=[];autosize=1;strokeColor=none;fillColor=none;" vertex="1" parent="1">
          <mxGeometry x="370" y="140" width="80" height="30" as="geometry" />
        </mxCell>
        <mxCell id="HnHxEKp6ncTy2WVnBaNF-22" value="" style="endArrow=open;html=1;rounded=0;endFill=0;dashed=1;dashPattern=8 8;exitX=-0.029;exitY=1.015;exitDx=0;exitDy=0;exitPerimeter=0;" edge="1" parent="1" source="HnHxEKp6ncTy2WVnBaNF-20" target="HnHxEKp6ncTy2WVnBaNF-13">
          <mxGeometry width="50" height="50" relative="1" as="geometry">
            <mxPoint x="600" y="180" as="sourcePoint" />
            <mxPoint x="370" y="190" as="targetPoint" />
          </mxGeometry>
        </mxCell>
        <mxCell id="HnHxEKp6ncTy2WVnBaNF-23" value="voyant allumé" style="text;html=1;align=center;verticalAlign=middle;resizable=0;points=[];autosize=1;strokeColor=none;fillColor=none;" vertex="1" parent="1">
          <mxGeometry x="360" y="175" width="100" height="30" as="geometry" />
        </mxCell>
        <mxCell id="HnHxEKp6ncTy2WVnBaNF-24" value="opt" style="shape=umlFrame;whiteSpace=wrap;html=1;pointerEvents=0;" vertex="1" parent="1">
          <mxGeometry x="240" y="215" width="200" height="75" as="geometry" />
        </mxCell>
        <mxCell id="HnHxEKp6ncTy2WVnBaNF-25" value="" style="endArrow=open;html=1;rounded=0;endFill=0;" edge="1" parent="1" source="HnHxEKp6ncTy2WVnBaNF-13" target="HnHxEKp6ncTy2WVnBaNF-13">
          <mxGeometry width="50" height="50" relative="1" as="geometry">
            <mxPoint x="340" y="220" as="sourcePoint" />
            <mxPoint x="390" y="270" as="targetPoint" />
            <Array as="points">
              <mxPoint x="360" y="220" />
              <mxPoint x="360" y="260" />
            </Array>
          </mxGeometry>
        </mxCell>
        <mxCell id="HnHxEKp6ncTy2WVnBaNF-26" value="[ u.position !=&lt;br&gt;a.position ]" style="text;html=1;align=center;verticalAlign=middle;resizable=0;points=[];autosize=1;strokeColor=none;fillColor=none;" vertex="1" parent="1">
          <mxGeometry x="231" y="245" width="100" height="40" as="geometry" />
        </mxCell>
        <mxCell id="HnHxEKp6ncTy2WVnBaNF-27" value="a.deplacer(&lt;br&gt;u.position)" style="text;html=1;align=center;verticalAlign=middle;resizable=0;points=[];autosize=1;strokeColor=none;fillColor=none;" vertex="1" parent="1">
          <mxGeometry x="360" y="220" width="80" height="40" as="geometry" />
        </mxCell>
        <mxCell id="HnHxEKp6ncTy2WVnBaNF-28" value="" style="endArrow=open;html=1;rounded=0;endFill=0;" edge="1" parent="1" source="HnHxEKp6ncTy2WVnBaNF-13" target="HnHxEKp6ncTy2WVnBaNF-29">
          <mxGeometry width="50" height="50" relative="1" as="geometry">
            <mxPoint x="340" y="320" as="sourcePoint" />
            <mxPoint x="510" y="320" as="targetPoint" />
          </mxGeometry>
        </mxCell>
        <mxCell id="HnHxEKp6ncTy2WVnBaNF-30" value="" style="endArrow=none;dashed=1;html=1;rounded=0;entryX=0.5;entryY=1;entryDx=0;entryDy=0;" edge="1" parent="1" source="HnHxEKp6ncTy2WVnBaNF-34" target="HnHxEKp6ncTy2WVnBaNF-13">
          <mxGeometry width="50" height="50" relative="1" as="geometry">
            <mxPoint x="330" y="550" as="sourcePoint" />
            <mxPoint x="330" y="120" as="targetPoint" />
          </mxGeometry>
        </mxCell>
        <mxCell id="HnHxEKp6ncTy2WVnBaNF-13" value="" style="html=1;points=[[0,0,0,0,5],[0,1,0,0,-5],[1,0,0,0,5],[1,1,0,0,-5]];perimeter=orthogonalPerimeter;outlineConnect=0;targetShapes=umlLifeline;portConstraint=eastwest;newEdgeStyle={&quot;curved&quot;:0,&quot;rounded&quot;:0};" vertex="1" parent="1">
          <mxGeometry x="325" y="160" width="10" height="170" as="geometry" />
        </mxCell>
        <mxCell id="HnHxEKp6ncTy2WVnBaNF-31" value="p.ouvrir()" style="text;html=1;align=center;verticalAlign=middle;resizable=0;points=[];autosize=1;strokeColor=none;fillColor=none;" vertex="1" parent="1">
          <mxGeometry x="375" y="293" width="70" height="30" as="geometry" />
        </mxCell>
        <mxCell id="HnHxEKp6ncTy2WVnBaNF-32" value="" style="endArrow=open;html=1;rounded=0;endFill=0;dashed=1;dashPattern=8 8;entryX=1.014;entryY=0.997;entryDx=0;entryDy=0;entryPerimeter=0;" edge="1" parent="1" source="HnHxEKp6ncTy2WVnBaNF-29" target="HnHxEKp6ncTy2WVnBaNF-13">
          <mxGeometry width="50" height="50" relative="1" as="geometry">
            <mxPoint x="470" y="330" as="sourcePoint" />
            <mxPoint x="340" y="340" as="targetPoint" />
          </mxGeometry>
        </mxCell>
        <mxCell id="HnHxEKp6ncTy2WVnBaNF-33" value="porte ouverte" style="text;html=1;align=center;verticalAlign=middle;resizable=0;points=[];autosize=1;strokeColor=none;fillColor=none;" vertex="1" parent="1">
          <mxGeometry x="365" y="326" width="90" height="30" as="geometry" />
        </mxCell>
        <mxCell id="HnHxEKp6ncTy2WVnBaNF-35" value="" style="endArrow=openAsync;html=1;rounded=0;endFill=0;" edge="1" parent="1" target="HnHxEKp6ncTy2WVnBaNF-34">
          <mxGeometry width="50" height="50" relative="1" as="geometry">
            <mxPoint x="170" y="370" as="sourcePoint" />
            <mxPoint x="290" y="370" as="targetPoint" />
          </mxGeometry>
        </mxCell>
        <mxCell id="HnHxEKp6ncTy2WVnBaNF-36" value="" style="endArrow=none;dashed=1;html=1;rounded=0;entryX=0.5;entryY=1;entryDx=0;entryDy=0;" edge="1" parent="1" target="HnHxEKp6ncTy2WVnBaNF-34">
          <mxGeometry width="50" height="50" relative="1" as="geometry">
            <mxPoint x="330" y="550" as="sourcePoint" />
            <mxPoint x="330" y="330" as="targetPoint" />
          </mxGeometry>
        </mxCell>
        <mxCell id="HnHxEKp6ncTy2WVnBaNF-34" value="" style="html=1;points=[[0,0,0,0,5],[0,1,0,0,-5],[1,0,0,0,5],[1,1,0,0,-5]];perimeter=orthogonalPerimeter;outlineConnect=0;targetShapes=umlLifeline;portConstraint=eastwest;newEdgeStyle={&quot;curved&quot;:0,&quot;rounded&quot;:0};" vertex="1" parent="1">
          <mxGeometry x="325" y="370" width="10" height="170" as="geometry" />
        </mxCell>
        <mxCell id="HnHxEKp6ncTy2WVnBaNF-37" value="a.choisirEtage(&lt;br&gt;u.destination)" style="text;html=1;align=center;verticalAlign=middle;resizable=0;points=[];autosize=1;strokeColor=none;fillColor=none;" vertex="1" parent="1">
          <mxGeometry x="200" y="330" width="100" height="40" as="geometry" />
        </mxCell>
        <mxCell id="HnHxEKp6ncTy2WVnBaNF-38" value="" style="endArrow=open;html=1;rounded=0;endFill=0;dashed=1;dashPattern=8 8;" edge="1" parent="1" source="HnHxEKp6ncTy2WVnBaNF-34">
          <mxGeometry width="50" height="50" relative="1" as="geometry">
            <mxPoint x="320" y="390" as="sourcePoint" />
            <mxPoint x="170" y="390" as="targetPoint" />
          </mxGeometry>
        </mxCell>
        <mxCell id="HnHxEKp6ncTy2WVnBaNF-39" value="&lt;font color=&quot;#ff0000&quot; style=&quot;font-size: 14px;&quot;&gt;X&lt;/font&gt;" style="edgeLabel;html=1;align=center;verticalAlign=middle;resizable=0;points=[];" vertex="1" connectable="0" parent="HnHxEKp6ncTy2WVnBaNF-38">
          <mxGeometry x="-0.0017" y="-1" relative="1" as="geometry">
            <mxPoint as="offset" />
          </mxGeometry>
        </mxCell>
        <mxCell id="HnHxEKp6ncTy2WVnBaNF-40" value="&lt;font color=&quot;#ff0000&quot;&gt;&lt;strike&gt;destination choisie&lt;/strike&gt;&lt;/font&gt;" style="text;html=1;align=center;verticalAlign=middle;resizable=0;points=[];autosize=1;strokeColor=none;fillColor=none;" vertex="1" parent="1">
          <mxGeometry x="190" y="389" width="120" height="30" as="geometry" />
        </mxCell>
        <mxCell id="HnHxEKp6ncTy2WVnBaNF-41" value="" style="endArrow=open;html=1;rounded=0;endFill=0;exitX=1.067;exitY=0.063;exitDx=0;exitDy=0;exitPerimeter=0;entryX=-0.035;entryY=-0.03;entryDx=0;entryDy=0;entryPerimeter=0;" edge="1" parent="1" source="HnHxEKp6ncTy2WVnBaNF-34" target="HnHxEKp6ncTy2WVnBaNF-59">
          <mxGeometry width="50" height="50" relative="1" as="geometry">
            <mxPoint x="345" y="330" as="sourcePoint" />
            <mxPoint x="480" y="380" as="targetPoint" />
          </mxGeometry>
        </mxCell>
        <mxCell id="HnHxEKp6ncTy2WVnBaNF-42" value="p.fermer()" style="text;html=1;align=center;verticalAlign=middle;resizable=0;points=[];autosize=1;strokeColor=none;fillColor=none;" vertex="1" parent="1">
          <mxGeometry x="370" y="354" width="80" height="30" as="geometry" />
        </mxCell>
        <mxCell id="HnHxEKp6ncTy2WVnBaNF-43" value="" style="endArrow=open;html=1;rounded=0;endFill=0;dashed=1;dashPattern=8 8;entryX=0.959;entryY=0.116;entryDx=0;entryDy=0;entryPerimeter=0;" edge="1" parent="1" source="HnHxEKp6ncTy2WVnBaNF-59" target="HnHxEKp6ncTy2WVnBaNF-34">
          <mxGeometry width="50" height="50" relative="1" as="geometry">
            <mxPoint x="470" y="390" as="sourcePoint" />
            <mxPoint x="345" y="339" as="targetPoint" />
          </mxGeometry>
        </mxCell>
        <mxCell id="HnHxEKp6ncTy2WVnBaNF-44" value="" style="endArrow=none;dashed=1;html=1;rounded=0;entryX=0.5;entryY=1;entryDx=0;entryDy=0;" edge="1" parent="1" target="HnHxEKp6ncTy2WVnBaNF-29">
          <mxGeometry width="50" height="50" relative="1" as="geometry">
            <mxPoint x="480" y="550" as="sourcePoint" />
            <mxPoint x="480" y="120" as="targetPoint" />
          </mxGeometry>
        </mxCell>
        <mxCell id="HnHxEKp6ncTy2WVnBaNF-29" value="" style="html=1;points=[[0,0,0,0,5],[0,1,0,0,-5],[1,0,0,0,5],[1,1,0,0,-5]];perimeter=orthogonalPerimeter;outlineConnect=0;targetShapes=umlLifeline;portConstraint=eastwest;newEdgeStyle={&quot;curved&quot;:0,&quot;rounded&quot;:0};" vertex="1" parent="1">
          <mxGeometry x="475" y="320" width="10" height="10" as="geometry" />
        </mxCell>
        <mxCell id="HnHxEKp6ncTy2WVnBaNF-46" value="porte fermée" style="text;html=1;align=center;verticalAlign=middle;resizable=0;points=[];autosize=1;strokeColor=none;fillColor=none;" vertex="1" parent="1">
          <mxGeometry x="365" y="386" width="90" height="30" as="geometry" />
        </mxCell>
        <mxCell id="HnHxEKp6ncTy2WVnBaNF-47" value="" style="endArrow=open;html=1;rounded=0;endFill=0;" edge="1" parent="1">
          <mxGeometry width="50" height="50" relative="1" as="geometry">
            <mxPoint x="335" y="410" as="sourcePoint" />
            <mxPoint x="335" y="450" as="targetPoint" />
            <Array as="points">
              <mxPoint x="360" y="410" />
              <mxPoint x="360" y="450" />
            </Array>
          </mxGeometry>
        </mxCell>
        <mxCell id="HnHxEKp6ncTy2WVnBaNF-48" value="a.deplacer(&lt;br&gt;u.destination)" style="text;html=1;align=center;verticalAlign=middle;resizable=0;points=[];autosize=1;strokeColor=none;fillColor=none;" vertex="1" parent="1">
          <mxGeometry x="355" y="410" width="100" height="40" as="geometry" />
        </mxCell>
        <mxCell id="HnHxEKp6ncTy2WVnBaNF-49" value="" style="endArrow=open;html=1;rounded=0;endFill=0;exitX=1.011;exitY=0.588;exitDx=0;exitDy=0;exitPerimeter=0;entryX=-0.055;entryY=-0.009;entryDx=0;entryDy=0;entryPerimeter=0;" edge="1" parent="1" target="HnHxEKp6ncTy2WVnBaNF-60">
          <mxGeometry width="50" height="50" relative="1" as="geometry">
            <mxPoint x="335.1099999999999" y="479.96000000000004" as="sourcePoint" />
            <mxPoint x="475" y="479.96000000000004" as="targetPoint" />
          </mxGeometry>
        </mxCell>
        <mxCell id="HnHxEKp6ncTy2WVnBaNF-50" value="" style="endArrow=open;html=1;rounded=0;endFill=0;dashed=1;dashPattern=8 8;entryX=1.036;entryY=0.641;entryDx=0;entryDy=0;entryPerimeter=0;" edge="1" parent="1" source="HnHxEKp6ncTy2WVnBaNF-60">
          <mxGeometry width="50" height="50" relative="1" as="geometry">
            <mxPoint x="475" y="488.97" as="sourcePoint" />
            <mxPoint x="335.3600000000001" y="488.97" as="targetPoint" />
          </mxGeometry>
        </mxCell>
        <mxCell id="HnHxEKp6ncTy2WVnBaNF-51" value="p.ouvrir()" style="text;html=1;align=center;verticalAlign=middle;resizable=0;points=[];autosize=1;strokeColor=none;fillColor=none;" vertex="1" parent="1">
          <mxGeometry x="375" y="454" width="70" height="30" as="geometry" />
        </mxCell>
        <mxCell id="HnHxEKp6ncTy2WVnBaNF-53" value="porte ouverte" style="text;html=1;align=center;verticalAlign=middle;resizable=0;points=[];autosize=1;strokeColor=none;fillColor=none;" vertex="1" parent="1">
          <mxGeometry x="365" y="484" width="90" height="30" as="geometry" />
        </mxCell>
        <mxCell id="HnHxEKp6ncTy2WVnBaNF-54" value="" style="endArrow=open;html=1;rounded=0;endFill=0;" edge="1" parent="1" source="HnHxEKp6ncTy2WVnBaNF-34" target="HnHxEKp6ncTy2WVnBaNF-55">
          <mxGeometry width="50" height="50" relative="1" as="geometry">
            <mxPoint x="340" y="520" as="sourcePoint" />
            <mxPoint x="580" y="520" as="targetPoint" />
          </mxGeometry>
        </mxCell>
        <mxCell id="HnHxEKp6ncTy2WVnBaNF-56" value="" style="endArrow=open;html=1;rounded=0;endFill=0;dashed=1;dashPattern=8 8;exitX=-0.061;exitY=1;exitDx=0;exitDy=0;exitPerimeter=0;" edge="1" parent="1" source="HnHxEKp6ncTy2WVnBaNF-55" target="HnHxEKp6ncTy2WVnBaNF-34">
          <mxGeometry width="50" height="50" relative="1" as="geometry">
            <mxPoint x="610" y="540" as="sourcePoint" />
            <mxPoint x="340" y="540" as="targetPoint" />
          </mxGeometry>
        </mxCell>
        <mxCell id="HnHxEKp6ncTy2WVnBaNF-57" value="" style="endArrow=none;dashed=1;html=1;rounded=0;entryX=0.5;entryY=1;entryDx=0;entryDy=0;" edge="1" parent="1" target="HnHxEKp6ncTy2WVnBaNF-55">
          <mxGeometry width="50" height="50" relative="1" as="geometry">
            <mxPoint x="620" y="550" as="sourcePoint" />
            <mxPoint x="620" y="120" as="targetPoint" />
          </mxGeometry>
        </mxCell>
        <mxCell id="HnHxEKp6ncTy2WVnBaNF-55" value="" style="html=1;points=[[0,0,0,0,5],[0,1,0,0,-5],[1,0,0,0,5],[1,1,0,0,-5]];perimeter=orthogonalPerimeter;outlineConnect=0;targetShapes=umlLifeline;portConstraint=eastwest;newEdgeStyle={&quot;curved&quot;:0,&quot;rounded&quot;:0};" vertex="1" parent="1">
          <mxGeometry x="615" y="520" width="10" height="20" as="geometry" />
        </mxCell>
        <mxCell id="HnHxEKp6ncTy2WVnBaNF-59" value="" style="html=1;points=[[0,0,0,0,5],[0,1,0,0,-5],[1,0,0,0,5],[1,1,0,0,-5]];perimeter=orthogonalPerimeter;outlineConnect=0;targetShapes=umlLifeline;portConstraint=eastwest;newEdgeStyle={&quot;curved&quot;:0,&quot;rounded&quot;:0};" vertex="1" parent="1">
          <mxGeometry x="475" y="380" width="10" height="10" as="geometry" />
        </mxCell>
        <mxCell id="HnHxEKp6ncTy2WVnBaNF-60" value="" style="html=1;points=[[0,0,0,0,5],[0,1,0,0,-5],[1,0,0,0,5],[1,1,0,0,-5]];perimeter=orthogonalPerimeter;outlineConnect=0;targetShapes=umlLifeline;portConstraint=eastwest;newEdgeStyle={&quot;curved&quot;:0,&quot;rounded&quot;:0};" vertex="1" parent="1">
          <mxGeometry x="475" y="479" width="10" height="10" as="geometry" />
        </mxCell>
      </root>
    </mxGraphModel>
  </diagram>
</mxfile>
